<mxfile host="app.diagrams.net" agent="Mozilla/5.0 (Windows NT 10.0; Win64; x64) AppleWebKit/537.36 (KHTML, like Gecko) Chrome/135.0.0.0 Safari/537.36" version="26.2.12">
  <diagram name="Page-1" id="YrNC15BHSmFHTuPUxvIZ">
    <mxGraphModel dx="1182" dy="641" grid="1" gridSize="10" guides="1" tooltips="1" connect="1" arrows="1" fold="1" page="1" pageScale="1" pageWidth="827" pageHeight="1169" math="0" shadow="0">
      <root>
        <mxCell id="0" />
        <mxCell id="1" parent="0" />
        <mxCell id="nxbr4o2TUtsP3Ga2lGvz-1" value=":Patient" style="shape=umlActor;verticalLabelPosition=bottom;verticalAlign=top;html=1;" parent="1" vertex="1">
          <mxGeometry x="480" y="110" width="30" height="60" as="geometry" />
        </mxCell>
        <mxCell id="nxbr4o2TUtsP3Ga2lGvz-3" value=":Doctor" style="shape=umlActor;verticalLabelPosition=bottom;verticalAlign=top;html=1;" parent="1" vertex="1">
          <mxGeometry x="80" y="110" width="30" height="60" as="geometry" />
        </mxCell>
        <mxCell id="nxbr4o2TUtsP3Ga2lGvz-4" value="" style="endArrow=none;html=1;edgeStyle=orthogonalEdgeStyle;rounded=0;entryX=0;entryY=0.5;entryDx=0;entryDy=0;" parent="1" target="nxbr4o2TUtsP3Ga2lGvz-7" edge="1">
          <mxGeometry relative="1" as="geometry">
            <mxPoint x="120" y="139.57" as="sourcePoint" />
            <mxPoint x="190" y="140" as="targetPoint" />
          </mxGeometry>
        </mxCell>
        <mxCell id="nxbr4o2TUtsP3Ga2lGvz-5" value="1: setAvailability()" style="edgeLabel;resizable=0;html=1;align=left;verticalAlign=bottom;" parent="nxbr4o2TUtsP3Ga2lGvz-4" connectable="0" vertex="1">
          <mxGeometry x="-1" relative="1" as="geometry">
            <mxPoint x="10" y="-2" as="offset" />
          </mxGeometry>
        </mxCell>
        <mxCell id="nxbr4o2TUtsP3Ga2lGvz-7" value=":Availability" style="html=1;whiteSpace=wrap;" parent="1" vertex="1">
          <mxGeometry x="230" y="122.5" width="80" height="35" as="geometry" />
        </mxCell>
        <mxCell id="nxbr4o2TUtsP3Ga2lGvz-10" value="" style="endArrow=none;html=1;edgeStyle=orthogonalEdgeStyle;rounded=0;" parent="1" edge="1">
          <mxGeometry relative="1" as="geometry">
            <mxPoint x="310" y="139.6" as="sourcePoint" />
            <mxPoint x="470" y="139.6" as="targetPoint" />
          </mxGeometry>
        </mxCell>
        <mxCell id="nxbr4o2TUtsP3Ga2lGvz-15" value="" style="endArrow=none;html=1;edgeStyle=orthogonalEdgeStyle;rounded=0;" parent="1" edge="1">
          <mxGeometry relative="1" as="geometry">
            <mxPoint x="494.59999999999997" y="200" as="sourcePoint" />
            <mxPoint x="494.59999999999997" y="320" as="targetPoint" />
          </mxGeometry>
        </mxCell>
        <mxCell id="nxbr4o2TUtsP3Ga2lGvz-21" value=":Appointment" style="html=1;whiteSpace=wrap;" parent="1" vertex="1">
          <mxGeometry x="455" y="320" width="80" height="35" as="geometry" />
        </mxCell>
        <mxCell id="nxbr4o2TUtsP3Ga2lGvz-25" value="" style="endArrow=none;html=1;edgeStyle=orthogonalEdgeStyle;rounded=0;" parent="1" edge="1">
          <mxGeometry relative="1" as="geometry">
            <mxPoint x="494.47" y="355" as="sourcePoint" />
            <mxPoint x="494.47" y="484" as="targetPoint" />
            <Array as="points">
              <mxPoint x="494.47" y="420" />
              <mxPoint x="494.47" y="420" />
            </Array>
          </mxGeometry>
        </mxCell>
        <mxCell id="nxbr4o2TUtsP3Ga2lGvz-34" value="&lt;div&gt;rateDoctor()&lt;/div&gt;" style="edgeLabel;html=1;align=center;verticalAlign=middle;resizable=0;points=[];" parent="nxbr4o2TUtsP3Ga2lGvz-25" vertex="1" connectable="0">
          <mxGeometry x="0.0043" relative="1" as="geometry">
            <mxPoint x="1" as="offset" />
          </mxGeometry>
        </mxCell>
        <mxCell id="nxbr4o2TUtsP3Ga2lGvz-28" value="3: bookAppointment()&lt;div&gt;&lt;span style=&quot;&quot;&gt;cancelAppointment()&lt;/span&gt;&lt;/div&gt;" style="edgeLabel;resizable=0;html=1;align=center;verticalAlign=bottom;" parent="1" connectable="0" vertex="1">
          <mxGeometry x="495" y="250" as="geometry">
            <mxPoint y="17" as="offset" />
          </mxGeometry>
        </mxCell>
        <mxCell id="nxbr4o2TUtsP3Ga2lGvz-32" value="&lt;font style=&quot;font-size: 11px;&quot;&gt;2: viewAvailableSlots()&lt;/font&gt;" style="text;whiteSpace=wrap;html=1;" parent="1" vertex="1">
          <mxGeometry x="325" y="117.5" width="130" height="22.5" as="geometry" />
        </mxCell>
        <mxCell id="nxbr4o2TUtsP3Ga2lGvz-35" value=":Rating" style="html=1;whiteSpace=wrap;" parent="1" vertex="1">
          <mxGeometry x="455" y="480" width="80" height="35" as="geometry" />
        </mxCell>
        <mxCell id="nxbr4o2TUtsP3Ga2lGvz-36" value="" style="endArrow=none;html=1;edgeStyle=orthogonalEdgeStyle;rounded=0;entryX=0.002;entryY=0.515;entryDx=0;entryDy=0;entryPerimeter=0;" parent="1" target="nxbr4o2TUtsP3Ga2lGvz-21" edge="1">
          <mxGeometry relative="1" as="geometry">
            <mxPoint x="100" y="200" as="sourcePoint" />
            <mxPoint x="450" y="338" as="targetPoint" />
            <Array as="points">
              <mxPoint x="100" y="338" />
            </Array>
          </mxGeometry>
        </mxCell>
        <mxCell id="nxbr4o2TUtsP3Ga2lGvz-37" value="cancelAppointment()" style="edgeLabel;html=1;align=center;verticalAlign=middle;resizable=0;points=[];" parent="nxbr4o2TUtsP3Ga2lGvz-36" vertex="1" connectable="0">
          <mxGeometry x="0.0043" relative="1" as="geometry">
            <mxPoint x="38" as="offset" />
          </mxGeometry>
        </mxCell>
        <mxCell id="nxbr4o2TUtsP3Ga2lGvz-38" value="" style="endArrow=none;html=1;edgeStyle=orthogonalEdgeStyle;rounded=0;" parent="1" edge="1">
          <mxGeometry relative="1" as="geometry">
            <mxPoint x="536" y="337.02" as="sourcePoint" />
            <mxPoint x="691" y="337" as="targetPoint" />
            <Array as="points">
              <mxPoint x="536.38" y="337.02" />
            </Array>
          </mxGeometry>
        </mxCell>
        <mxCell id="nxbr4o2TUtsP3Ga2lGvz-39" value="4: generateDiagnosis()" style="edgeLabel;html=1;align=center;verticalAlign=middle;resizable=0;points=[];" parent="nxbr4o2TUtsP3Ga2lGvz-38" vertex="1" connectable="0">
          <mxGeometry x="0.0043" relative="1" as="geometry">
            <mxPoint x="-1" as="offset" />
          </mxGeometry>
        </mxCell>
        <mxCell id="RvZgijAfwFQS2roT_Q4Y-1" value="" style="edgeLabel;html=1;align=center;verticalAlign=middle;resizable=0;points=[];" vertex="1" connectable="0" parent="nxbr4o2TUtsP3Ga2lGvz-38">
          <mxGeometry x="-0.5279" y="-5" relative="1" as="geometry">
            <mxPoint x="118" y="-172" as="offset" />
          </mxGeometry>
        </mxCell>
        <mxCell id="nxbr4o2TUtsP3Ga2lGvz-40" value=":Diagnosis" style="html=1;whiteSpace=wrap;" parent="1" vertex="1">
          <mxGeometry x="690" y="320" width="80" height="35" as="geometry" />
        </mxCell>
      </root>
    </mxGraphModel>
  </diagram>
</mxfile>
